<?xml version="1.0" encoding="UTF-8" standalone="no"?><svg xmlns="http://www.w3.org/2000/svg" xmlns:xlink="http://www.w3.org/1999/xlink" contentScriptType="application/ecmascript" contentStyleType="text/css" height="273px" preserveAspectRatio="none" style="width:227px;height:273px;" version="1.1" viewBox="0 0 227 273" width="227px" zoomAndPan="magnify"><defs><filter height="300%" id="fu6hndv9hiwxt" width="300%" x="-1" y="-1"><feGaussianBlur result="blurOut" stdDeviation="2.0"/><feColorMatrix in="blurOut" result="blurOut2" type="matrix" values="0 0 0 0 0 0 0 0 0 0 0 0 0 0 0 0 0 0 .4 0"/><feOffset dx="4.0" dy="4.0" in="blurOut2" result="blurOut3"/><feBlend in="SourceGraphic" in2="blurOut3" mode="normal"/></filter></defs><g><ellipse cx="110" cy="18" fill="#000000" filter="url(#fu6hndv9hiwxt)" rx="10" ry="10" style="stroke: none; stroke-width: 1.0;"/><rect fill="#FEFECE" filter="url(#fu6hndv9hiwxt)" height="40" rx="12.5" ry="12.5" style="stroke: #A80036; stroke-width: 1.5;" width="50" x="85" y="105"/><text fill="#000000" font-family="sans-serif" font-size="14" lengthAdjust="spacingAndGlyphs" textLength="19" x="100.5" y="129.8467">Off</text><ellipse cx="16" cy="242" fill="none" filter="url(#fu6hndv9hiwxt)" rx="10" ry="10" style="stroke: #000000; stroke-width: 1.0;"/><ellipse cx="16.5" cy="242.5" fill="#000000" rx="6" ry="6" style="stroke: none; stroke-width: 1.0;"/><rect fill="#FEFECE" filter="url(#fu6hndv9hiwxt)" height="40" rx="12.5" ry="12.5" style="stroke: #A80036; stroke-width: 1.5;" width="50" x="130" y="222"/><text fill="#000000" font-family="sans-serif" font-size="14" lengthAdjust="spacingAndGlyphs" textLength="20" x="145" y="246.8467">On</text><!--MD5=[79cb27a3a0f2a433e2384f6da7fb5477]
link *start to Off--><path d="M110,28.32 C110,44.12 110,76.65 110,99.38 " fill="none" id="*start-&gt;Off" style="stroke: #A80036; stroke-width: 1.0;"/><polygon fill="#A80036" points="110,104.64,114,95.64,110,99.64,106,95.64,110,104.64" style="stroke: #A80036; stroke-width: 1.0;"/><text fill="#000000" font-family="sans-serif" font-size="13" lengthAdjust="spacingAndGlyphs" textLength="36" x="111" y="71.0669">screw</text><!--MD5=[98082356dd0c978256ddd0df15d48b0c]
link Off to *end--><path d="M84.79,138.94 C70.29,147.48 52.68,159.88 41,175 C28.97,190.58 22.19,212.6 18.81,226.84 " fill="none" id="Off-&gt;*end" style="stroke: #A80036; stroke-width: 1.0;"/><polygon fill="#A80036" points="17.64,232.07,23.502,224.1557,18.7277,227.1897,15.6936,222.4154,17.64,232.07" style="stroke: #A80036; stroke-width: 1.0;"/><text fill="#000000" font-family="sans-serif" font-size="13" lengthAdjust="spacingAndGlyphs" textLength="52" x="42" y="188.0669">unscrew</text><!--MD5=[88d9d84fc04544578402cf3b742eaaec]
link Off to On--><path d="M104.97,145.22 C102.4,158.79 100.93,177.13 107,192 C111.1,202.04 118.36,211.14 126.01,218.7 " fill="none" id="Off-&gt;On" style="stroke: #A80036; stroke-width: 1.0;"/><polygon fill="#A80036" points="129.79,222.28,125.9955,213.1915,126.1557,218.846,120.5011,219.0063,129.79,222.28" style="stroke: #A80036; stroke-width: 1.0;"/><text fill="#000000" font-family="sans-serif" font-size="13" lengthAdjust="spacingAndGlyphs" textLength="49" x="108" y="188.0669">turn_on</text><!--MD5=[2ee57ebca22bdc8713f173619aa2ce0d]
link On to Off--><path d="M161.95,221.75 C165.7,208.16 168.39,189.81 162,175 C157.1,163.64 148.12,153.69 138.99,145.78 " fill="none" id="On-&gt;Off" style="stroke: #A80036; stroke-width: 1.0;"/><polygon fill="#A80036" points="135.08,142.52,139.4171,151.3625,138.9153,145.7279,144.5498,145.2261,135.08,142.52" style="stroke: #A80036; stroke-width: 1.0;"/><text fill="#000000" font-family="sans-serif" font-size="13" lengthAdjust="spacingAndGlyphs" textLength="49" x="166" y="188.0669">turn_off</text><!--MD5=[c2169544fcb5b457e5e8486edbff3877]
@startuml
hide empty description
[*] - -> Off : screw
Off - -> [*] : unscrew
	Off - -> On : turn_on
	On - -> Off : turn_off
@enduml

PlantUML version 1.2020.02(Sun Mar 01 10:22:07 WET 2020)
(GPL source distribution)
Java Runtime: OpenJDK Runtime Environment
JVM: OpenJDK 64-Bit Server VM
Java Version: 11.0.11+9-Ubuntu-0ubuntu2.20.10
Operating System: Linux
Default Encoding: UTF-8
Language: en
Country: US
--></g></svg>