<?xml version="1.0" encoding="UTF-8" standalone="no"?><svg xmlns="http://www.w3.org/2000/svg" xmlns:xlink="http://www.w3.org/1999/xlink" contentScriptType="application/ecmascript" contentStyleType="text/css" height="385px" preserveAspectRatio="none" style="width:268px;height:385px;" version="1.1" viewBox="0 0 268 385" width="268px" zoomAndPan="magnify"><defs><filter height="300%" id="f1454wtr31d659" width="300%" x="-1" y="-1"><feGaussianBlur result="blurOut" stdDeviation="2.0"/><feColorMatrix in="blurOut" result="blurOut2" type="matrix" values="0 0 0 0 0 0 0 0 0 0 0 0 0 0 0 0 0 0 .4 0"/><feOffset dx="4.0" dy="4.0" in="blurOut2" result="blurOut3"/><feBlend in="SourceGraphic" in2="blurOut3" mode="normal"/></filter></defs><g><ellipse cx="155" cy="18" fill="#000000" filter="url(#f1454wtr31d659)" rx="10" ry="10" style="stroke: none; stroke-width: 1.0;"/><rect fill="#FEFECE" filter="url(#f1454wtr31d659)" height="40" rx="12.5" ry="12.5" style="stroke: #A80036; stroke-width: 1.5;" width="50" x="130" y="105"/><text fill="#000000" font-family="sans-serif" font-size="14" lengthAdjust="spacingAndGlyphs" textLength="19" x="145.5" y="129.8467">Off</text><ellipse cx="16" cy="247" fill="none" filter="url(#f1454wtr31d659)" rx="10" ry="10" style="stroke: #000000; stroke-width: 1.0;"/><ellipse cx="16.5" cy="247.5" fill="#000000" rx="6" ry="6" style="stroke: none; stroke-width: 1.0;"/><rect fill="#FEFECE" filter="url(#f1454wtr31d659)" height="50.2656" rx="12.5" ry="12.5" style="stroke: #A80036; stroke-width: 1.5;" width="78" x="128" y="222"/><line style="stroke: #A80036; stroke-width: 1.5;" x1="128" x2="206" y1="248.2969" y2="248.2969"/><text fill="#000000" font-family="sans-serif" font-size="14" lengthAdjust="spacingAndGlyphs" textLength="20" x="157" y="239.9951">On</text><text fill="#000000" font-family="sans-serif" font-size="12" lengthAdjust="spacingAndGlyphs" textLength="58" x="133" y="264.4355">get_color</text><polygon fill="#FEFECE" filter="url(#f1454wtr31d659)" points="234,349,246,361,234,373,222,361,234,349" style="stroke: #A80036; stroke-width: 1.5;"/><!--MD5=[79cb27a3a0f2a433e2384f6da7fb5477]
link *start to Off--><path d="M155,28.32 C155,44.12 155,76.65 155,99.38 " fill="none" id="*start-&gt;Off" style="stroke: #A80036; stroke-width: 1.0;"/><polygon fill="#A80036" points="155,104.64,159,95.64,155,99.64,151,95.64,155,104.64" style="stroke: #A80036; stroke-width: 1.0;"/><text fill="#000000" font-family="sans-serif" font-size="13" lengthAdjust="spacingAndGlyphs" textLength="36" x="156" y="71.0669">screw</text><!--MD5=[98082356dd0c978256ddd0df15d48b0c]
link Off to *end--><path d="M129.63,130.89 C104.23,137.03 65.63,149.96 42,175 C27.08,190.82 20.58,215.89 17.85,231.62 " fill="none" id="Off-&gt;*end" style="stroke: #A80036; stroke-width: 1.0;"/><polygon fill="#A80036" points="17.01,236.96,22.3733,228.6996,17.7949,232.022,14.4725,227.4436,17.01,236.96" style="stroke: #A80036; stroke-width: 1.0;"/><text fill="#000000" font-family="sans-serif" font-size="13" lengthAdjust="spacingAndGlyphs" textLength="52" x="43" y="188.0669">unscrew</text><!--MD5=[88d9d84fc04544578402cf3b742eaaec]
link Off to On--><path d="M129.72,142.94 C114.26,155.58 98.87,173.75 107,192 C111.41,201.9 118.63,210.75 126.56,218.28 " fill="none" id="Off-&gt;On" style="stroke: #A80036; stroke-width: 1.0;"/><polygon fill="#A80036" points="130.51,221.86,126.5516,212.8416,126.8142,218.4924,121.1634,218.7549,130.51,221.86" style="stroke: #A80036; stroke-width: 1.0;"/><text fill="#000000" font-family="sans-serif" font-size="13" lengthAdjust="spacingAndGlyphs" textLength="49" x="108" y="188.0669">turn_on</text><!--MD5=[2ee57ebca22bdc8713f173619aa2ce0d]
link On to Off--><path d="M165.74,221.97 C164.91,208.2 163.66,190.61 162,175 C161.14,166.95 159.97,158.18 158.82,150.32 " fill="none" id="On-&gt;Off" style="stroke: #A80036; stroke-width: 1.0;"/><polygon fill="#A80036" points="158.04,145.04,155.3912,154.526,158.7671,149.9869,163.3062,153.3627,158.04,145.04" style="stroke: #A80036; stroke-width: 1.0;"/><text fill="#000000" font-family="sans-serif" font-size="13" lengthAdjust="spacingAndGlyphs" textLength="49" x="164" y="188.0669">turn_off</text><!--MD5=[0bae5780af6f2e8a618f3dbc28b36207]
link On to C_On--><path d="M151.45,272.14 C144.26,286.6 139.08,304.86 148,319 C163.64,343.78 198.82,353.9 219.01,357.78 " fill="none" id="On-&gt;C_On" style="stroke: #A80036; stroke-width: 1.0;"/><polygon fill="#A80036" points="224.03,358.68,215.8822,353.1471,219.1093,357.7931,214.4632,361.0202,224.03,358.68" style="stroke: #A80036; stroke-width: 1.0;"/><text fill="#000000" font-family="sans-serif" font-size="13" lengthAdjust="spacingAndGlyphs" textLength="58" x="149" y="315.0669">set_color</text><!--MD5=[7554ee87703da2b98634abee08bc70d4]
link C_On to On--><path d="M231.58,350.94 C228.22,339.16 221.45,318.18 212,302 C206.76,293.03 200.04,284.06 193.39,276.08 " fill="none" id="C_On-&gt;On" style="stroke: #A80036; stroke-width: 1.0;"/><polygon fill="#A80036" points="190.14,272.25,192.9015,281.7038,193.3704,276.0664,199.0077,276.5352,190.14,272.25" style="stroke: #A80036; stroke-width: 1.0;"/><!--MD5=[216ba6c3538226062718503e00a2c594]
link C_On to Off--><path d="M236.29,350.95 C238.25,342.7 240.93,330.12 242,319 C248.22,254.69 255.65,230.16 222,175 C213.17,160.52 198.29,149 184.8,140.77 " fill="none" id="C_On-&gt;Off" style="stroke: #A80036; stroke-width: 1.0;"/><polygon fill="#A80036" points="180.29,138.11,186.0007,146.1342,184.5938,140.6551,190.0729,139.2481,180.29,138.11" style="stroke: #A80036; stroke-width: 1.0;"/><!--MD5=[f3d9aa27e4da52de7aea5ce6391f908d]
@startuml
hide empty description
[*] - -> Off : screw
Off - -> [*] : unscrew
Off - -> On : turn_on
On - -> Off : turn_off
On : get_color
state C_On <<choice>>
On - -> C_On: set_color
C_On - -> Off
C_On - -> On

@enduml

PlantUML version 1.2020.02(Sun Mar 01 10:22:07 WET 2020)
(GPL source distribution)
Java Runtime: OpenJDK Runtime Environment
JVM: OpenJDK 64-Bit Server VM
Java Version: 11.0.11+9-Ubuntu-0ubuntu2.20.10
Operating System: Linux
Default Encoding: UTF-8
Language: en
Country: US
--></g></svg>