<?xml version="1.0" encoding="UTF-8" standalone="no"?>
<!DOCTYPE svg PUBLIC "-//W3C//DTD SVG 1.1//EN"
 "http://www.w3.org/Graphics/SVG/1.1/DTD/svg11.dtd">
<!-- Generated by graphviz version 2.43.0 (0)
 -->
<!-- Title: Automata Pages: 1 -->
<svg width="246pt" height="318pt"
 viewBox="0.00 0.00 246.07 318.00" xmlns="http://www.w3.org/2000/svg" xmlns:xlink="http://www.w3.org/1999/xlink">
<g id="graph0" class="graph" transform="scale(1 1) rotate(0) translate(18 300)">
<title>Automata</title>
<polygon fill="white" stroke="transparent" points="-18,18 -18,-300 228.07,-300 228.07,18 -18,18"/>
<!-- _initial_0 -->
<g id="node1" class="node">
<title>_initial_0</title>
</g>
<!-- Off -->
<g id="node2" class="node">
<title>Off</title>
<ellipse fill="none" stroke="black" stroke-width="2" cx="68.07" cy="-141" rx="27" ry="18"/>
<text text-anchor="middle" x="68.07" y="-137.3" font-family="Times,serif" font-size="14.00">Off</text>
</g>
<!-- _initial_0&#45;&gt;Off -->
<g id="edge1" class="edge">
<title>_initial_0&#45;&gt;Off</title>
<path fill="none" stroke="black" d="M68.07,-245.92C68.07,-226.04 68.07,-192.92 68.07,-169.42"/>
<polygon fill="black" stroke="black" points="71.57,-169.38 68.07,-159.38 64.57,-169.38 71.57,-169.38"/>
<text text-anchor="middle" x="89.57" y="-198.8" font-family="Times,serif" font-size="14.00">screw</text>
</g>
<!-- Off&#45;&gt;Off -->
<g id="edge2" class="edge">
<title>Off&#45;&gt;Off</title>
<path fill="none" stroke="black" stroke-dasharray="5,2" d="M92.12,-149.44C118.7,-155.06 149.07,-152.25 149.07,-141 149.07,-131.16 125.81,-127.77 102.2,-130.85"/>
<polygon fill="black" stroke="black" points="101.39,-127.44 92.12,-132.56 102.56,-134.34 101.39,-127.44"/>
<text text-anchor="middle" x="179.57" y="-137.3" font-family="Times,serif" font-size="14.00">unscrew</text>
</g>
<!-- On -->
<g id="node3" class="node">
<title>On</title>
<ellipse fill="none" stroke="black" cx="68.07" cy="-18" rx="27" ry="18"/>
<text text-anchor="middle" x="68.07" y="-14.3" font-family="Times,serif" font-size="14.00">On</text>
</g>
<!-- Off&#45;&gt;On -->
<g id="edge3" class="edge">
<title>Off&#45;&gt;On</title>
<path fill="none" stroke="black" d="M47.12,-129.5C31.78,-120.54 12.13,-106.07 3.07,-87 -7.23,-65.31 15.73,-46.11 37.15,-33.69"/>
<polygon fill="black" stroke="black" points="39.03,-36.65 46.14,-28.8 35.68,-30.51 39.03,-36.65"/>
<text text-anchor="middle" x="30.57" y="-75.8" font-family="Times,serif" font-size="14.00">turn_on</text>
</g>
<!-- On&#45;&gt;Off -->
<g id="edge4" class="edge">
<title>On&#45;&gt;Off</title>
<path fill="none" stroke="black" d="M68.07,-36.38C68.07,-56.31 68.07,-89.24 68.07,-112.62"/>
<polygon fill="black" stroke="black" points="64.57,-112.92 68.07,-122.92 71.57,-112.92 64.57,-112.92"/>
<text text-anchor="middle" x="96.07" y="-75.8" font-family="Times,serif" font-size="14.00">turn_off</text>
</g>
</g>
</svg>
