<?xml version="1.0" encoding="UTF-8" standalone="no"?>
<!DOCTYPE svg PUBLIC "-//W3C//DTD SVG 1.1//EN"
 "http://www.w3.org/Graphics/SVG/1.1/DTD/svg11.dtd">
<!-- Generated by graphviz version 2.43.0 (0)
 -->
<!-- Title: Automata Pages: 1 -->
<svg width="374pt" height="318pt"
 viewBox="0.00 0.00 374.13 318.00" xmlns="http://www.w3.org/2000/svg" xmlns:xlink="http://www.w3.org/1999/xlink">
<g id="graph0" class="graph" transform="scale(1 1) rotate(0) translate(18 300)">
<title>Automata</title>
<polygon fill="white" stroke="transparent" points="-18,18 -18,-300 356.13,-300 356.13,18 -18,18"/>
<!-- _initial_0 -->
<g id="node1" class="node">
<title>_initial_0</title>
</g>
<!-- Off -->
<g id="node2" class="node">
<title>Off</title>
<ellipse fill="none" stroke="black" stroke-width="2" cx="127.13" cy="-141" rx="27" ry="18"/>
<text text-anchor="middle" x="127.13" y="-137.3" font-family="Times,serif" font-size="14.00">Off</text>
</g>
<!-- _initial_0&#45;&gt;Off -->
<g id="edge1" class="edge">
<title>_initial_0&#45;&gt;Off</title>
<path fill="none" stroke="black" d="M127.13,-245.92C127.13,-226.04 127.13,-192.92 127.13,-169.42"/>
<polygon fill="black" stroke="black" points="130.63,-169.38 127.13,-159.38 123.63,-169.38 130.63,-169.38"/>
<text text-anchor="middle" x="148.63" y="-198.8" font-family="Times,serif" font-size="14.00">screw</text>
</g>
<!-- Off&#45;&gt;Off -->
<g id="edge2" class="edge">
<title>Off&#45;&gt;Off</title>
<path fill="none" stroke="black" stroke-dasharray="5,2" d="M151.18,-149.44C177.76,-155.06 208.13,-152.25 208.13,-141 208.13,-131.16 184.88,-127.77 161.26,-130.85"/>
<polygon fill="black" stroke="black" points="160.45,-127.44 151.18,-132.56 161.62,-134.34 160.45,-127.44"/>
<text text-anchor="middle" x="238.63" y="-137.3" font-family="Times,serif" font-size="14.00">unscrew</text>
</g>
<!-- On -->
<g id="node3" class="node">
<title>On</title>
<ellipse fill="none" stroke="black" cx="127.13" cy="-18" rx="27" ry="18"/>
<text text-anchor="middle" x="127.13" y="-14.3" font-family="Times,serif" font-size="14.00">On</text>
</g>
<!-- Off&#45;&gt;On -->
<g id="edge3" class="edge">
<title>Off&#45;&gt;On</title>
<path fill="none" stroke="black" d="M100.82,-136.93C71.75,-131.98 26.28,-119.25 5.13,-87 -18.08,-51.62 47.05,-32.87 90.86,-24.53"/>
<polygon fill="black" stroke="black" points="91.71,-27.93 100.93,-22.72 90.47,-21.04 91.71,-27.93"/>
<text text-anchor="middle" x="32.63" y="-75.8" font-family="Times,serif" font-size="14.00">turn_on</text>
</g>
<!-- On&#45;&gt;Off -->
<g id="edge4" class="edge">
<title>On&#45;&gt;Off</title>
<path fill="none" stroke="black" d="M123.3,-36.01C120.66,-49.74 117.82,-69.58 119.13,-87 119.77,-95.48 120.97,-104.66 122.25,-112.96"/>
<polygon fill="black" stroke="black" points="118.81,-113.59 123.88,-122.89 125.71,-112.45 118.81,-113.59"/>
<text text-anchor="middle" x="147.13" y="-75.8" font-family="Times,serif" font-size="14.00">turn_off</text>
</g>
<!-- On&#45;&gt;Off -->
<g id="edge6" class="edge">
<title>On&#45;&gt;Off</title>
<path fill="none" stroke="black" d="M147.83,-30.06C167.99,-42.45 194.22,-63.84 184.13,-87 177.96,-101.16 165.95,-113.23 154.53,-122.27"/>
<polygon fill="black" stroke="black" points="152.36,-119.52 146.41,-128.3 156.53,-125.14 152.36,-119.52"/>
<text text-anchor="middle" x="218.13" y="-75.8" font-family="Times,serif" font-size="14.00">set_color</text>
</g>
<!-- On&#45;&gt;On -->
<g id="edge5" class="edge">
<title>On&#45;&gt;On</title>
<path fill="none" stroke="black" d="M153.68,-22.47C179.62,-24.94 208.13,-23.45 208.13,-18 208.13,-13.25 186.5,-11.51 163.77,-12.77"/>
<polygon fill="black" stroke="black" points="163.39,-9.29 153.68,-13.53 163.91,-16.27 163.39,-9.29"/>
<text text-anchor="middle" x="241.13" y="-14.3" font-family="Times,serif" font-size="14.00">get_color</text>
</g>
<!-- On&#45;&gt;On -->
<g id="edge7" class="edge">
<title>On&#45;&gt;On</title>
<path fill="none" stroke="black" d="M152.83,-24.11C202.52,-32.61 274.13,-30.57 274.13,-18 274.13,-6.27 211.72,-3.71 162.99,-10.33"/>
<polygon fill="black" stroke="black" points="162.19,-6.92 152.83,-11.89 163.25,-13.84 162.19,-6.92"/>
<text text-anchor="middle" x="306.13" y="-14.3" font-family="Times,serif" font-size="14.00">set_color</text>
</g>
</g>
</svg>
