<?xml version="1.0" encoding="UTF-8" standalone="no"?><svg xmlns="http://www.w3.org/2000/svg" xmlns:xlink="http://www.w3.org/1999/xlink" contentScriptType="application/ecmascript" contentStyleType="text/css" height="273px" preserveAspectRatio="none" style="width:408px;height:273px;" version="1.1" viewBox="0 0 408 273" width="408px" zoomAndPan="magnify"><defs><filter height="300%" id="f9ci894bis8n" width="300%" x="-1" y="-1"><feGaussianBlur result="blurOut" stdDeviation="2.0"/><feColorMatrix in="blurOut" result="blurOut2" type="matrix" values="0 0 0 0 0 0 0 0 0 0 0 0 0 0 0 0 0 0 .4 0"/><feOffset dx="4.0" dy="4.0" in="blurOut2" result="blurOut3"/><feBlend in="SourceGraphic" in2="blurOut3" mode="normal"/></filter></defs><g><ellipse cx="155" cy="18" fill="#000000" filter="url(#f9ci894bis8n)" rx="10" ry="10" style="stroke: none; stroke-width: 1.0;"/><rect fill="#FEFECE" filter="url(#f9ci894bis8n)" height="40" rx="12.5" ry="12.5" style="stroke: #A80036; stroke-width: 1.5;" width="50" x="130" y="105"/><text fill="#000000" font-family="sans-serif" font-size="14" lengthAdjust="spacingAndGlyphs" textLength="19" x="145.5" y="129.8467">Off</text><ellipse cx="16" cy="242" fill="none" filter="url(#f9ci894bis8n)" rx="10" ry="10" style="stroke: #000000; stroke-width: 1.0;"/><ellipse cx="16.5" cy="242.5" fill="#000000" rx="6" ry="6" style="stroke: none; stroke-width: 1.0;"/><rect fill="#FEFECE" filter="url(#f9ci894bis8n)" height="40" rx="12.5" ry="12.5" style="stroke: #A80036; stroke-width: 1.5;" width="50" x="176" y="222"/><text fill="#000000" font-family="sans-serif" font-size="14" lengthAdjust="spacingAndGlyphs" textLength="20" x="191" y="246.8467">On</text><!--MD5=[79cb27a3a0f2a433e2384f6da7fb5477]
link *start to Off--><path d="M155,28.32 C155,44.12 155,76.65 155,99.38 " fill="none" id="*start-&gt;Off" style="stroke: #A80036; stroke-width: 1.0;"/><polygon fill="#A80036" points="155,104.64,159,95.64,155,99.64,151,95.64,155,104.64" style="stroke: #A80036; stroke-width: 1.0;"/><text fill="#000000" font-family="sans-serif" font-size="13" lengthAdjust="spacingAndGlyphs" textLength="36" x="156" y="71.0669">screw</text><!--MD5=[98082356dd0c978256ddd0df15d48b0c]
link Off to *end--><path d="M129.66,132.89 C106.79,140.19 73.39,153.65 51,175 C35.62,189.67 25.59,212.6 20.36,227.21 " fill="none" id="Off-&gt;*end" style="stroke: #A80036; stroke-width: 1.0;"/><polygon fill="#A80036" points="18.65,232.18,25.3432,224.955,20.2654,227.4481,17.7722,222.3703,18.65,232.18" style="stroke: #A80036; stroke-width: 1.0;"/><text fill="#000000" font-family="sans-serif" font-size="13" lengthAdjust="spacingAndGlyphs" textLength="52" x="52" y="188.0669">unscrew</text><!--MD5=[2ee57ebca22bdc8713f173619aa2ce0d]
link On to Off--><path d="M193.28,221.69 C185.37,201.93 173.08,171.19 164.56,149.91 " fill="none" id="On-&gt;Off" style="stroke: #A80036; stroke-width: 1.0;"/><polygon fill="#A80036" points="162.7,145.25,162.3286,155.0919,164.557,149.8924,169.7564,152.1207,162.7,145.25" style="stroke: #A80036; stroke-width: 1.0;"/><text fill="#000000" font-family="sans-serif" font-size="13" lengthAdjust="spacingAndGlyphs" textLength="58" x="181" y="188.0669">set_color</text><!--MD5=[2ee57ebca22bdc8713f173619aa2ce0d]
link On to Off--><path d="M226.13,224.11 C242.29,211.06 258.47,192.34 248,175 C234.41,152.48 206.65,139.79 184.98,133 " fill="none" id="On-&gt;Off-1" style="stroke: #A80036; stroke-width: 1.0;"/><polygon fill="#A80036" points="180.18,131.55,187.6598,137.9572,184.9711,132.9802,189.9481,130.2914,180.18,131.55" style="stroke: #A80036; stroke-width: 1.0;"/><text fill="#000000" font-family="sans-serif" font-size="13" lengthAdjust="spacingAndGlyphs" textLength="49" x="252" y="188.0669">turn_off</text><!--MD5=[88d9d84fc04544578402cf3b742eaaec]
link Off to On--><path d="M131.92,145 C118.86,158.16 106.81,176.1 116,192 C127.78,212.39 151.64,225.05 171.08,232.38 " fill="none" id="Off-&gt;On" style="stroke: #A80036; stroke-width: 1.0;"/><polygon fill="#A80036" points="175.92,234.13,168.8172,227.3073,171.2181,232.4293,166.0961,234.8303,175.92,234.13" style="stroke: #A80036; stroke-width: 1.0;"/><text fill="#000000" font-family="sans-serif" font-size="13" lengthAdjust="spacingAndGlyphs" textLength="49" x="117" y="188.0669">turn_on</text><!--MD5=[90859c011dde6d1160bee2a844a46ec2]
link On to On--><path d="M226.28,237.09 C243.77,235.61 261,237.24 261,242 C261,246.27 247.09,248.03 231.58,247.26 " fill="none" id="On-&gt;On" style="stroke: #A80036; stroke-width: 1.0;"/><polygon fill="#A80036" points="226.28,246.91,234.9975,251.4932,231.2692,247.2388,235.5236,243.5105,226.28,246.91" style="stroke: #A80036; stroke-width: 1.0;"/><text fill="#000000" font-family="sans-serif" font-size="13" lengthAdjust="spacingAndGlyphs" textLength="58" x="267" y="246.5669">set_color</text><!--MD5=[90859c011dde6d1160bee2a844a46ec2]
link On to On--><path d="M226.26,235.11 C267.64,228.06 331,230.36 331,242 C331,253.18 272.49,255.74 231.2,249.67 " fill="none" id="On-&gt;On-1" style="stroke: #A80036; stroke-width: 1.0;"/><polygon fill="#A80036" points="226.26,248.89,234.5204,254.2533,231.198,249.6749,235.7764,246.3525,226.26,248.89" style="stroke: #A80036; stroke-width: 1.0;"/><text fill="#000000" font-family="sans-serif" font-size="13" lengthAdjust="spacingAndGlyphs" textLength="59" x="337" y="246.5669">get_color</text><!--MD5=[c9cfcee62c0b881390a226ee960a54f3]
@startuml
hide empty description
[*] - -> Off : screw
Off - -> [*] : unscrew
	On - -> Off : set_color
	On - -> On : set_color
	On - -> On : get_color
	On - -> Off : turn_off
	Off - -> On : turn_on
@enduml

PlantUML version 1.2020.02(Sun Mar 01 10:22:07 WET 2020)
(GPL source distribution)
Java Runtime: OpenJDK Runtime Environment
JVM: OpenJDK 64-Bit Server VM
Java Version: 11.0.11+9-Ubuntu-0ubuntu2.20.10
Operating System: Linux
Default Encoding: UTF-8
Language: en
Country: US
--></g></svg>